<mxfile host="Electron" modified="2024-05-29T12:53:08.305Z" agent="Mozilla/5.0 (X11; Linux x86_64) AppleWebKit/537.36 (KHTML, like Gecko) draw.io/24.0.4 Chrome/120.0.6099.109 Electron/28.1.0 Safari/537.36" etag="yPYtlsrSSSXgWWpwSbqU" version="24.0.4" type="device">
  <diagram name="第 1 页" id="vGQhIbD1uYybRJEew0uc">
    <mxGraphModel dx="1434" dy="907" grid="1" gridSize="1" guides="1" tooltips="1" connect="1" arrows="1" fold="1" page="1" pageScale="1" pageWidth="827" pageHeight="1169" math="1" shadow="0">
      <root>
        <mxCell id="0" />
        <mxCell id="1" parent="0" />
        <mxCell id="Patx8YLgU2vjet0wj14f-1" value="" style="endArrow=classic;html=1;rounded=0;fontFamily=Times New Roman;fontSize=12;" parent="1" edge="1">
          <mxGeometry width="50" height="50" relative="1" as="geometry">
            <mxPoint x="240" y="400" as="sourcePoint" />
            <mxPoint x="240" y="190" as="targetPoint" />
          </mxGeometry>
        </mxCell>
        <mxCell id="Patx8YLgU2vjet0wj14f-2" value="" style="endArrow=classic;html=1;rounded=0;fontFamily=Times New Roman;fontSize=12;" parent="1" source="Patx8YLgU2vjet0wj14f-19" edge="1">
          <mxGeometry width="50" height="50" relative="1" as="geometry">
            <mxPoint x="600" y="410" as="sourcePoint" />
            <mxPoint x="600" y="190" as="targetPoint" />
          </mxGeometry>
        </mxCell>
        <mxCell id="Patx8YLgU2vjet0wj14f-3" value="" style="endArrow=classic;html=1;rounded=0;dashed=1;fontFamily=Times New Roman;fontSize=12;" parent="1" source="Patx8YLgU2vjet0wj14f-23" edge="1">
          <mxGeometry width="50" height="50" relative="1" as="geometry">
            <mxPoint x="650" y="410" as="sourcePoint" />
            <mxPoint x="650" y="190" as="targetPoint" />
          </mxGeometry>
        </mxCell>
        <mxCell id="Patx8YLgU2vjet0wj14f-4" value="" style="endArrow=none;html=1;rounded=0;fontFamily=Times New Roman;fontSize=12;" parent="1" edge="1">
          <mxGeometry width="50" height="50" relative="1" as="geometry">
            <mxPoint x="240" y="456" as="sourcePoint" />
            <mxPoint x="240" y="408" as="targetPoint" />
          </mxGeometry>
        </mxCell>
        <mxCell id="Patx8YLgU2vjet0wj14f-5" value="" style="endArrow=none;html=1;rounded=0;fontFamily=Times New Roman;fontSize=12;" parent="1" edge="1">
          <mxGeometry width="50" height="50" relative="1" as="geometry">
            <mxPoint x="650" y="456" as="sourcePoint" />
            <mxPoint x="650" y="408" as="targetPoint" />
          </mxGeometry>
        </mxCell>
        <mxCell id="Patx8YLgU2vjet0wj14f-6" value="" style="endArrow=none;html=1;rounded=0;fontFamily=Times New Roman;fontSize=12;" parent="1" edge="1">
          <mxGeometry width="50" height="50" relative="1" as="geometry">
            <mxPoint x="600" y="428" as="sourcePoint" />
            <mxPoint x="600" y="408" as="targetPoint" />
          </mxGeometry>
        </mxCell>
        <mxCell id="Patx8YLgU2vjet0wj14f-7" value="" style="endArrow=classic;html=1;rounded=0;startArrow=classic;startFill=1;endFill=1;fontFamily=Times New Roman;fontSize=12;" parent="1" edge="1">
          <mxGeometry width="50" height="50" relative="1" as="geometry">
            <mxPoint x="240" y="418" as="sourcePoint" />
            <mxPoint x="600" y="418" as="targetPoint" />
          </mxGeometry>
        </mxCell>
        <mxCell id="Patx8YLgU2vjet0wj14f-8" value="" style="endArrow=classic;html=1;rounded=0;startArrow=classic;startFill=1;endFill=1;fontFamily=Times New Roman;fontSize=12;" parent="1" edge="1">
          <mxGeometry width="50" height="50" relative="1" as="geometry">
            <mxPoint x="240" y="449" as="sourcePoint" />
            <mxPoint x="650" y="449" as="targetPoint" />
          </mxGeometry>
        </mxCell>
        <mxCell id="Patx8YLgU2vjet0wj14f-9" value="" style="endArrow=none;html=1;rounded=0;fontFamily=Times New Roman;fontSize=12;" parent="1" edge="1">
          <mxGeometry width="50" height="50" relative="1" as="geometry">
            <mxPoint x="200" y="330" as="sourcePoint" />
            <mxPoint x="340" y="330" as="targetPoint" />
          </mxGeometry>
        </mxCell>
        <mxCell id="Patx8YLgU2vjet0wj14f-10" value="" style="endArrow=none;html=1;rounded=0;fontFamily=Times New Roman;fontSize=12;" parent="1" edge="1">
          <mxGeometry width="50" height="50" relative="1" as="geometry">
            <mxPoint x="350" y="330" as="sourcePoint" />
            <mxPoint x="520" y="330" as="targetPoint" />
          </mxGeometry>
        </mxCell>
        <mxCell id="Patx8YLgU2vjet0wj14f-11" value="" style="endArrow=none;html=1;rounded=0;fontFamily=Times New Roman;fontSize=12;" parent="1" edge="1">
          <mxGeometry width="50" height="50" relative="1" as="geometry">
            <mxPoint x="530" y="330" as="sourcePoint" />
            <mxPoint x="690" y="330" as="targetPoint" />
          </mxGeometry>
        </mxCell>
        <mxCell id="Patx8YLgU2vjet0wj14f-12" value="" style="endArrow=none;html=1;rounded=0;fontFamily=Times New Roman;fontSize=12;" parent="1" source="Patx8YLgU2vjet0wj14f-15" edge="1">
          <mxGeometry width="50" height="50" relative="1" as="geometry">
            <mxPoint x="240" y="350" as="sourcePoint" />
            <mxPoint x="650" y="250" as="targetPoint" />
          </mxGeometry>
        </mxCell>
        <mxCell id="Patx8YLgU2vjet0wj14f-18" value="" style="endArrow=none;html=1;rounded=0;fontFamily=Times New Roman;fontSize=12;" parent="1" target="Patx8YLgU2vjet0wj14f-15" edge="1">
          <mxGeometry width="50" height="50" relative="1" as="geometry">
            <mxPoint x="240" y="350" as="sourcePoint" />
            <mxPoint x="650" y="250" as="targetPoint" />
          </mxGeometry>
        </mxCell>
        <mxCell id="Patx8YLgU2vjet0wj14f-15" value="" style="ellipse;whiteSpace=wrap;html=1;aspect=fixed;fillColor=#000000;fontFamily=Times New Roman;fontSize=12;" parent="1" vertex="1">
          <mxGeometry x="238" y="348" width="4" height="4" as="geometry" />
        </mxCell>
        <mxCell id="Patx8YLgU2vjet0wj14f-20" value="" style="endArrow=none;html=1;rounded=0;fontFamily=Times New Roman;fontSize=12;endFill=0;" parent="1" target="Patx8YLgU2vjet0wj14f-19" edge="1">
          <mxGeometry width="50" height="50" relative="1" as="geometry">
            <mxPoint x="600" y="400" as="sourcePoint" />
            <mxPoint x="600" y="190" as="targetPoint" />
          </mxGeometry>
        </mxCell>
        <mxCell id="Patx8YLgU2vjet0wj14f-19" value="" style="ellipse;whiteSpace=wrap;html=1;aspect=fixed;fillColor=#000000;fontFamily=Times New Roman;fontSize=12;" parent="1" vertex="1">
          <mxGeometry x="598" y="260" width="4" height="4" as="geometry" />
        </mxCell>
        <mxCell id="Patx8YLgU2vjet0wj14f-24" value="" style="endArrow=none;html=1;rounded=0;dashed=1;endFill=0;fontFamily=Times New Roman;fontSize=12;" parent="1" target="Patx8YLgU2vjet0wj14f-23" edge="1">
          <mxGeometry width="50" height="50" relative="1" as="geometry">
            <mxPoint x="650" y="400" as="sourcePoint" />
            <mxPoint x="650" y="190" as="targetPoint" />
          </mxGeometry>
        </mxCell>
        <mxCell id="Patx8YLgU2vjet0wj14f-23" value="" style="ellipse;whiteSpace=wrap;html=1;aspect=fixed;fillColor=#000000;fontFamily=Times New Roman;fontSize=12;" parent="1" vertex="1">
          <mxGeometry x="648" y="248" width="4" height="4" as="geometry" />
        </mxCell>
        <mxCell id="Patx8YLgU2vjet0wj14f-25" value="$$u$$" style="text;html=1;align=center;verticalAlign=middle;whiteSpace=wrap;rounded=0;fontFamily=Times New Roman;fontSize=12;" parent="1" vertex="1">
          <mxGeometry x="215" y="340" width="23" height="20" as="geometry" />
        </mxCell>
        <mxCell id="Patx8YLgU2vjet0wj14f-27" value="$$U$$" style="text;html=1;align=center;verticalAlign=middle;whiteSpace=wrap;rounded=0;fontFamily=Times New Roman;fontSize=12;" parent="1" vertex="1">
          <mxGeometry x="245" y="185" width="20" height="20" as="geometry" />
        </mxCell>
        <mxCell id="Patx8YLgU2vjet0wj14f-28" value="$$S$$" style="text;html=1;align=center;verticalAlign=middle;whiteSpace=wrap;rounded=0;fontFamily=Times New Roman;fontSize=12;" parent="1" vertex="1">
          <mxGeometry x="575" y="185" width="20" height="20" as="geometry" />
        </mxCell>
        <mxCell id="Patx8YLgU2vjet0wj14f-29" value="$$S&#39;$$" style="text;html=1;align=center;verticalAlign=middle;whiteSpace=wrap;rounded=0;fontFamily=Times New Roman;fontSize=12;" parent="1" vertex="1">
          <mxGeometry x="655" y="185" width="25" height="20" as="geometry" />
        </mxCell>
        <mxCell id="Patx8YLgU2vjet0wj14f-30" value="$$s&#39;$$" style="text;html=1;align=center;verticalAlign=middle;whiteSpace=wrap;rounded=0;fontFamily=Times New Roman;fontSize=12;" parent="1" vertex="1">
          <mxGeometry x="655" y="240" width="25" height="20" as="geometry" />
        </mxCell>
        <mxCell id="Patx8YLgU2vjet0wj14f-31" value="$$s$$" style="text;html=1;align=center;verticalAlign=middle;whiteSpace=wrap;rounded=0;fontFamily=Times New Roman;fontSize=12;" parent="1" vertex="1">
          <mxGeometry x="575" y="240" width="23" height="24" as="geometry" />
        </mxCell>
        <mxCell id="Patx8YLgU2vjet0wj14f-32" value="$$l$$" style="text;html=1;align=center;verticalAlign=middle;whiteSpace=wrap;rounded=0;fontFamily=Times New Roman;fontSize=12;" parent="1" vertex="1">
          <mxGeometry x="242" y="398" width="360" height="15" as="geometry" />
        </mxCell>
        <mxCell id="Patx8YLgU2vjet0wj14f-33" value="$$l&#39;$$" style="text;html=1;align=center;verticalAlign=middle;whiteSpace=wrap;rounded=0;fontFamily=Times New Roman;fontSize=12;" parent="1" vertex="1">
          <mxGeometry x="241" y="427" width="403" height="20" as="geometry" />
        </mxCell>
        <mxCell id="Patx8YLgU2vjet0wj14f-34" value="$$P\left ( u,s \right ) = P&#39; \left ( u, s&#39; \right ) $$" style="text;html=1;align=center;verticalAlign=middle;whiteSpace=wrap;rounded=0;fontFamily=Times New Roman;fontSize=12;" parent="1" vertex="1">
          <mxGeometry x="325" y="270" width="140" height="30" as="geometry" />
        </mxCell>
      </root>
    </mxGraphModel>
  </diagram>
</mxfile>
